<svg xmlns="http://www.w3.org/2000/svg" width="100" height="100" viewBox="0 0 100 100"><path fill="#3B5998" d="M94.453 99.97c3.046 0 5.518-2.47 5.518-5.516V5.518C99.97 2.47 97.5 0 94.454 0H5.518C2.468 0 0 2.47 0 5.518v88.937c0 3.046 2.47 5.518 5.518 5.518h88.935v-.002z"/><path fill="#fff" d="M56.57 92.437V53.723h12.995l1.945-15.088H56.57v-9.633c0-4.368 1.212-7.345 7.478-7.345l7.99-.004V8.158c-1.383-.183-6.125-.595-11.644-.595-11.52 0-19.403 7.03-19.403 19.944v11.126H27.963V53.72h13.03v38.716h15.58z"/></svg>