<svg xmlns="http://www.w3.org/2000/svg" width="100" height="100"><path fill="#3B5998" d="M94.453 99.971c3.046 0 5.517-2.471 5.517-5.517v-88.936c0-3.048-2.471-5.518-5.517-5.518h-88.935c-3.049 0-5.518 2.47-5.518 5.518v88.937c0 3.046 2.469 5.517 5.518 5.517h88.935z"/><path fill="#fff" d="M68.978 99.971v-38.714h12.995l1.945-15.088h-14.94v-9.633c0-4.368 1.212-7.344 7.477-7.344l7.99-.004v-13.495c-1.383-.183-6.125-.595-11.643-.595-11.519 0-19.404 7.031-19.404 19.944v11.126h-13.029v15.088h13.029v38.714h15.58z"/></svg>