<svg xmlns="http://www.w3.org/2000/svg" width="100" height="100"><path fill="#3B5998" d="M94.453 99.971c3.046 0 5.518-2.471 5.518-5.517v-88.936c0-3.048-2.472-5.518-5.518-5.518h-88.935c-3.049 0-5.518 2.47-5.518 5.518v88.937c0 3.046 2.469 5.518 5.518 5.518h88.935v-.002z"/><path fill="#fff" d="M56.571 92.437v-38.714h12.994l1.945-15.088h-14.939v-9.633c0-4.368 1.211-7.345 7.477-7.345l7.99-.004v-13.495c-1.383-.183-6.125-.595-11.644-.595-11.519 0-19.403 7.031-19.403 19.944v11.126h-13.029v15.088h13.029v38.715h15.58v.001z"/></svg>