<svg xmlns="http://www.w3.org/2000/svg" width="100" height="100"><g><rect fill="#F3DF49" width="100" height="100"/><path fill="#2E2E2C" d="M26.293 83.567l7.653-4.632c1.477 2.618 2.819 4.832 6.041 4.832 3.088 0 5.035-1.207 5.035-5.906v-31.951h9.398v32.084c0 9.734-5.706 14.164-14.03 14.164-7.517 0-11.881-3.892-14.097-8.591"/><path fill="#2E2E2C" d="M59.523 82.561l7.652-4.431c2.014 3.29 4.632 5.706 9.264 5.706 3.894 0 6.377-1.947 6.377-4.632 0-3.222-2.551-4.363-6.848-6.242l-2.348-1.008c-6.781-2.886-11.278-6.511-11.278-14.163 0-7.049 5.37-12.418 13.761-12.418 5.975 0 10.271 2.081 13.357 7.518l-7.316 4.699c-1.611-2.887-3.355-4.027-6.041-4.027-2.752 0-4.498 1.745-4.498 4.027 0 2.819 1.746 3.961 5.773 5.706l2.35 1.007c7.988 3.424 12.485 6.914 12.485 14.768 0 8.457-6.646 13.089-15.573 13.089-8.726-.001-14.365-4.162-17.117-9.599"/></g></svg>