<svg xmlns="http://www.w3.org/2000/svg" width="100" height="100" viewBox="0 0 100 100"><g><path fill="#F3DF49" d="M0 0h100v100H0z"/><path fill="#2E2E2C" d="M26.293 83.567l7.653-4.632c1.477 2.618 2.82 4.832 6.04 4.832 3.09 0 5.036-1.207 5.036-5.906V45.91h9.398v32.084c0 9.734-5.706 14.164-14.03 14.164-7.517 0-11.88-3.892-14.097-8.59"/><path fill="#2E2E2C" d="M59.523 82.56l7.652-4.43c2.014 3.29 4.632 5.706 9.264 5.706 3.893 0 6.376-1.947 6.376-4.632 0-3.222-2.55-4.363-6.848-6.242l-2.348-1.008c-6.78-2.886-11.278-6.51-11.278-14.163 0-7.048 5.37-12.417 13.76-12.417 5.976 0 10.272 2.08 13.358 7.518l-7.316 4.7c-1.61-2.887-3.355-4.027-6.04-4.027-2.753 0-4.5 1.745-4.5 4.027 0 2.82 1.747 3.96 5.774 5.706l2.35 1.007c7.988 3.424 12.485 6.914 12.485 14.768 0 8.458-6.646 13.09-15.573 13.09-8.726 0-14.365-4.162-17.117-9.6"/></g></svg>