<svg xmlns="http://www.w3.org/2000/svg" width="800" height="800"><g><rect fill="#F3DF49" width="800" height="800"/><path fill="#2E2E2C" d="M210.349 668.538l61.222-37.051c11.812 20.941 22.556 38.659 48.327 38.659 24.703 0 40.277-9.664 40.277-47.251v-255.619h75.18v256.683c0 77.866-45.643 113.31-112.234 113.31-60.142 0-95.052-31.147-112.772-68.736"/><path fill="#2E2E2C" d="M476.19 660.482l61.214-35.442c16.115 26.315 37.058 45.647 74.11 45.647 31.15 0 51.014-15.574 51.014-37.056 0-25.776-20.404-34.906-54.774-49.938l-18.79-8.06c-54.241-23.088-90.223-52.086-90.223-113.306 0-56.385 42.96-99.349 110.089-99.349 47.794 0 82.162 16.649 106.862 60.147l-58.535 37.589c-12.889-23.089-26.848-32.218-48.327-32.218-22.018 0-35.98 13.962-35.98 32.218 0 22.556 13.963 31.686 46.181 45.649l18.794 8.054c63.904 27.389 99.886 55.312 99.886 118.139 0 67.666-53.164 104.717-124.585 104.717-69.812.001-114.921-33.291-136.936-76.791"/></g><g><path fill="#2E2E2C" d="M112.312 719.686s37.147 79.77 34.834 79.829c-2.313.059-8.516.029-8.516.029l-9.991-23.118h-3.922l-1.207 23.326h-8.482l-5.029-23.178h-5.8l-4.325 23.415h-10.729l-4.291-23.415h-6.035l-4.828 23.178h-8.482l-1.173-23.326h-3.957l-9.957 23.118s-6.236.029-8.55-.029c-2.313-.06 34.868-79.829 34.868-79.829l1.341-65.051h-11.333v-4.244l12.17.06 1.509-68.285-5.968-.059v-17.479h7.074l2.85-123.839h-7.543v-10.446h9.589l1.173-92.026h-8.348v-23.919h-4.761l-.034-8.131h4.861l.067-23.741h10.863l.805-40.271h-6.839v-2.018h7.242l.57-102.621-7.845-.029v-2.018h7.979l.57-64.13v-.238h-6.705v-1.988h7.745l.737-51.162.738 51.162h7.778v1.988h-6.706v.238l.537 64.13h7.979v2.018l-7.812.029.57 102.621h7.242v2.018h-6.84l.805 40.271h10.863l.034 23.741h4.861l-.034 8.131h-4.761v23.919h-8.314l1.14 92.026h9.589v10.446h-7.543l2.883 123.839h7.074v17.479l-5.968.059 1.475 68.285 12.17-.06v4.244h-11.299l1.342 65.051z"/></g></svg>