<svg xmlns="http://www.w3.org/2000/svg" width="800" height="800" viewBox="0 0 800 800"><g><path fill="#F3DF49" d="M0 0h800v800H0z"/><path fill="#2E2E2C" d="M210.35 668.538l61.22-37.05c11.813 20.94 22.557 38.658 48.328 38.658 24.703 0 40.277-9.664 40.277-47.25v-255.62h75.18V623.96c0 77.865-45.643 113.31-112.234 113.31-60.14 0-95.05-31.148-112.77-68.737"/><path fill="#2E2E2C" d="M476.19 660.482l61.214-35.442c16.115 26.315 37.058 45.647 74.11 45.647 31.15 0 51.014-15.574 51.014-37.056 0-25.775-20.404-34.905-54.774-49.937l-18.79-8.06c-54.24-23.088-90.223-52.086-90.223-113.306 0-56.385 42.96-99.35 110.09-99.35 47.794 0 82.162 16.65 106.862 60.148l-58.535 37.59c-12.89-23.09-26.848-32.22-48.327-32.22-22.018 0-35.98 13.963-35.98 32.22 0 22.555 13.963 31.685 46.18 45.648l18.795 8.054c63.904 27.39 99.886 55.312 99.886 118.14 0 67.665-53.163 104.716-124.584 104.716-69.812 0-114.92-33.29-136.936-76.79"/></g><g><path fill="#2E2E2C" d="M112.312 719.686s37.147 79.77 34.834 79.83c-2.313.058-8.516.028-8.516.028l-9.99-23.118h-3.923l-1.207 23.326h-8.482l-5.03-23.178h-5.8l-4.324 23.415H89.145l-4.29-23.416h-6.036l-4.83 23.178h-8.48l-1.174-23.326H60.38l-9.958 23.118s-6.236.03-8.55-.03c-2.313-.06 34.868-79.828 34.868-79.828l1.34-65.05H66.75v-4.245l12.17.06 1.51-68.284-5.97-.06V564.63h7.075l2.85-123.84H76.84v-10.445h9.59l1.172-92.026h-8.348v-23.92h-4.76l-.035-8.13h4.86l.067-23.74H90.25l.805-40.272h-6.84v-2.018h7.243l.57-102.62-7.845-.03v-2.018h7.98l.57-64.13v-.24h-6.706v-1.987h7.745l.737-51.162.737 51.163h7.778V71.2H96.32v.24l.536 64.13h7.98v2.017l-7.813.03.57 102.62h7.242v2.018h-6.84l.805 40.27h10.863l.034 23.742h4.86l-.033 8.13h-4.76v23.92h-8.315l1.14 92.026h9.588v10.446h-7.543l2.883 123.838h7.074v17.48l-5.968.058 1.475 68.285 12.17-.06v4.245h-11.3l1.342 65.05z"/></g></svg>