<svg xmlns="http://www.w3.org/2000/svg" width="100" height="100"><path fill="#5FA9DD" d="M100 18.987c-3.679 1.632-7.633 2.735-11.783 3.231 4.235-2.539 7.489-6.56 9.021-11.351-3.964 2.351-8.354 4.059-13.027 4.979-3.743-3.987-9.075-6.479-14.976-6.479-11.331 0-20.517 9.186-20.517 20.516 0 1.608.181 3.174.531 4.676-17.051-.855-32.168-9.023-42.287-21.436-1.766 3.03-2.778 6.554-2.778 10.314 0 7.118 3.623 13.397 9.127 17.076-3.363-.106-6.526-1.029-9.292-2.566l-.002.258c0 9.94 7.072 18.233 16.458 20.118-1.722.469-3.534.719-5.405.719-1.322 0-2.607-.128-3.86-.367 2.611 8.15 10.188 14.082 19.165 14.248-7.021 5.502-15.867 8.782-25.479 8.782-1.656 0-3.29-.098-4.895-.287 9.079 5.821 19.864 9.218 31.45 9.218 37.737 0 58.373-31.262 58.373-58.373 0-.89-.021-1.774-.06-2.654 4.007-2.894 7.486-6.507 10.236-10.622z"/></svg>