<svg xmlns="http://www.w3.org/2000/svg" width="100" height="100" viewBox="0 0 100 100"><path fill="#fff" d="M100 18.987c-3.68 1.632-7.633 2.735-11.783 3.23 4.235-2.538 7.49-6.56 9.02-11.35-3.963 2.35-8.353 4.06-13.026 4.98-3.74-3.988-9.073-6.48-14.974-6.48-11.33 0-20.517 9.186-20.517 20.516 0 1.608.18 3.174.53 4.676C32.2 33.702 17.08 25.534 6.962 13.12c-1.766 3.03-2.778 6.554-2.778 10.314 0 7.118 3.622 13.397 9.127 17.076-3.362-.106-6.525-1.03-9.29-2.566-.002.086-.003.17-.003.258 0 9.94 7.07 18.233 16.457 20.118-1.722.47-3.534.72-5.405.72-1.322 0-2.607-.13-3.86-.368 2.61 8.15 10.188 14.082 19.165 14.248-7.02 5.502-15.868 8.782-25.48 8.782-1.655 0-3.29-.098-4.894-.287 9.08 5.82 19.865 9.218 31.45 9.218 37.738 0 58.374-31.262 58.374-58.373 0-.89-.02-1.774-.06-2.654C93.77 26.714 97.25 23.1 100 18.986z"/></svg>