<?xml version="1.0" encoding="utf-8"?>
<!-- Generator: Adobe Illustrator 16.0.0, SVG Export Plug-In . SVG Version: 6.00 Build 0)  -->
<!DOCTYPE svg PUBLIC "-//W3C//DTD SVG 1.1//EN" "http://www.w3.org/Graphics/SVG/1.1/DTD/svg11.dtd">
<svg version="1.1" id="Layer_1" xmlns="http://www.w3.org/2000/svg" xmlns:xlink="http://www.w3.org/1999/xlink" x="0px" y="0px"
	 width="100px" height="100px" viewBox="0 0 100 100" enable-background="new 0 0 100 100" xml:space="preserve">
<path id="Blue_1_" fill="#3B5998" d="M94.453,99.971c3.046,0,5.518-2.471,5.518-5.517V5.518C99.971,2.47,97.499,0,94.453,0H5.518
	C2.469,0,0,2.47,0,5.518v88.937c0,3.046,2.469,5.518,5.518,5.518h88.935V99.971z"/>
<path id="f" fill="#FFFFFF" d="M56.571,92.437V53.723h12.994l1.945-15.088H56.571v-9.633c0-4.368,1.211-7.345,7.477-7.345
	l7.99-0.004V8.158c-1.383-0.183-6.125-0.595-11.644-0.595c-11.519,0-19.403,7.031-19.403,19.944v11.126H27.962v15.088h13.029v38.715
	H56.571L56.571,92.437z"/>
</svg>
