<?xml version="1.0" encoding="utf-8"?>
<!-- Generator: Adobe Illustrator 16.0.0, SVG Export Plug-In . SVG Version: 6.00 Build 0)  -->
<!DOCTYPE svg PUBLIC "-//W3C//DTD SVG 1.1//EN" "http://www.w3.org/Graphics/SVG/1.1/DTD/svg11.dtd">
<svg version="1.1" id="Layer_1" xmlns="http://www.w3.org/2000/svg" xmlns:xlink="http://www.w3.org/1999/xlink" x="0px" y="0px"
	 width="100px" height="100px" viewBox="0 0 100 100" enable-background="new 0 0 100 100" xml:space="preserve">
<g>
	<path id="Blue_1_" fill="#3B5998" d="M94.453,99.971c3.046,0,5.517-2.471,5.517-5.517V5.518C99.97,2.47,97.499,0,94.453,0H5.518
		C2.469,0,0,2.47,0,5.518v88.937c0,3.046,2.469,5.517,5.518,5.517H94.453z"/>
	<path id="f" fill="#FFFFFF" d="M68.978,99.971V61.257h12.995l1.945-15.088h-14.94v-9.633c0-4.368,1.212-7.344,7.477-7.344
		l7.99-0.004V15.693c-1.383-0.183-6.125-0.595-11.643-0.595c-11.519,0-19.404,7.031-19.404,19.944v11.126H40.369v15.088h13.029
		v38.714H68.978z"/>
</g>
</svg>
