<?xml version="1.0" encoding="utf-8"?>
<!-- Generator: Adobe Illustrator 16.0.0, SVG Export Plug-In . SVG Version: 6.00 Build 0)  -->
<!DOCTYPE svg PUBLIC "-//W3C//DTD SVG 1.1//EN" "http://www.w3.org/Graphics/SVG/1.1/DTD/svg11.dtd">
<svg version="1.1" id="Layer_1" xmlns="http://www.w3.org/2000/svg" xmlns:xlink="http://www.w3.org/1999/xlink" x="0px" y="0px"
	 width="100px" height="100px" viewBox="0 0 100 100" enable-background="new 0 0 100 100" xml:space="preserve">
<g id="logo">
	<rect id="background" fill="#F3DF49" width="100" height="100"/>
	<path id="j" fill="#2E2E2C" d="M26.293,83.567l7.653-4.632c1.477,2.618,2.819,4.832,6.041,4.832c3.088,0,5.035-1.207,5.035-5.906
		V45.91h9.398v32.084c0,9.734-5.706,14.164-14.03,14.164C32.873,92.158,28.509,88.266,26.293,83.567"/>
	<path id="s" fill="#2E2E2C" d="M59.523,82.561l7.652-4.431c2.014,3.29,4.632,5.706,9.264,5.706c3.894,0,6.377-1.947,6.377-4.632
		c0-3.222-2.551-4.363-6.848-6.242l-2.348-1.008c-6.781-2.886-11.278-6.511-11.278-14.163c0-7.049,5.37-12.418,13.761-12.418
		c5.975,0,10.271,2.081,13.357,7.518l-7.316,4.699c-1.611-2.887-3.355-4.027-6.041-4.027c-2.752,0-4.498,1.745-4.498,4.027
		c0,2.819,1.746,3.961,5.773,5.706l2.35,1.007c7.988,3.424,12.485,6.914,12.485,14.768c0,8.457-6.646,13.089-15.573,13.089
		C67.914,92.159,62.275,87.998,59.523,82.561"/>
</g>
</svg>
