<?xml version="1.0" encoding="utf-8"?>
<!-- Generator: Adobe Illustrator 16.0.0, SVG Export Plug-In . SVG Version: 6.00 Build 0)  -->
<!DOCTYPE svg PUBLIC "-//W3C//DTD SVG 1.1//EN" "http://www.w3.org/Graphics/SVG/1.1/DTD/svg11.dtd">
<svg version="1.1" id="Layer_1" xmlns="http://www.w3.org/2000/svg" xmlns:xlink="http://www.w3.org/1999/xlink" x="0px" y="0px"
	 width="100px" height="100px" viewBox="0 0 100 100" enable-background="new 0 0 100 100" xml:space="preserve">
<path fill="#FFFFFF" d="M100,18.987c-3.679,1.632-7.633,2.735-11.783,3.231c4.235-2.539,7.489-6.56,9.021-11.351
	c-3.964,2.351-8.354,4.059-13.027,4.979c-3.743-3.987-9.075-6.479-14.976-6.479c-11.331,0-20.517,9.186-20.517,20.516
	c0,1.608,0.181,3.174,0.531,4.676c-17.051-0.855-32.168-9.023-42.287-21.436c-1.766,3.03-2.778,6.554-2.778,10.314
	c0,7.118,3.622,13.397,9.127,17.076c-3.363-0.106-6.526-1.029-9.292-2.566c-0.001,0.086-0.002,0.171-0.002,0.258
	c0,9.94,7.072,18.233,16.458,20.118c-1.722,0.469-3.534,0.719-5.405,0.719c-1.322,0-2.607-0.128-3.86-0.367
	c2.611,8.15,10.188,14.082,19.165,14.248c-7.021,5.502-15.868,8.782-25.479,8.782c-1.656,0-3.29-0.098-4.895-0.287
	c9.08,5.821,19.864,9.218,31.45,9.218c37.737,0,58.373-31.262,58.373-58.373c0-0.89-0.021-1.774-0.06-2.654
	C93.771,26.715,97.25,23.102,100,18.987z"/>
</svg>
